<mxfile host="app.diagrams.net" modified="2024-01-10T08:27:58.797Z" agent="Mozilla/5.0 (Macintosh; Intel Mac OS X 10_15_7) AppleWebKit/537.36 (KHTML, like Gecko) Chrome/120.0.0.0 Safari/537.36" etag="2fo3eZwnAzvAF2rqtSnc" version="22.1.18" type="github">
  <diagram name="第 1 页" id="TJhcJMW-7jdhnvpD9P9R">
    <mxGraphModel dx="1026" dy="650" grid="1" gridSize="10" guides="1" tooltips="1" connect="1" arrows="1" fold="1" page="1" pageScale="1" pageWidth="827" pageHeight="1169" math="0" shadow="0">
      <root>
        <mxCell id="0" />
        <mxCell id="1" parent="0" />
        <mxCell id="_wIgYrwJDzqNhFWRHHS7-5" style="edgeStyle=orthogonalEdgeStyle;rounded=0;orthogonalLoop=1;jettySize=auto;html=1;exitX=0.5;exitY=1;exitDx=0;exitDy=0;entryX=0.5;entryY=0;entryDx=0;entryDy=0;" edge="1" parent="1" source="_wIgYrwJDzqNhFWRHHS7-1" target="_wIgYrwJDzqNhFWRHHS7-2">
          <mxGeometry relative="1" as="geometry" />
        </mxCell>
        <mxCell id="_wIgYrwJDzqNhFWRHHS7-6" style="edgeStyle=orthogonalEdgeStyle;rounded=0;orthogonalLoop=1;jettySize=auto;html=1;exitX=0.5;exitY=1;exitDx=0;exitDy=0;" edge="1" parent="1" source="_wIgYrwJDzqNhFWRHHS7-1" target="_wIgYrwJDzqNhFWRHHS7-3">
          <mxGeometry relative="1" as="geometry" />
        </mxCell>
        <mxCell id="_wIgYrwJDzqNhFWRHHS7-7" style="edgeStyle=orthogonalEdgeStyle;rounded=0;orthogonalLoop=1;jettySize=auto;html=1;exitX=0.5;exitY=1;exitDx=0;exitDy=0;" edge="1" parent="1" source="_wIgYrwJDzqNhFWRHHS7-1" target="_wIgYrwJDzqNhFWRHHS7-4">
          <mxGeometry relative="1" as="geometry" />
        </mxCell>
        <mxCell id="_wIgYrwJDzqNhFWRHHS7-1" value="&lt;font face=&quot;Tahoma&quot;&gt;逃逸分析优点&lt;/font&gt;" style="rounded=0;whiteSpace=wrap;html=1;fillColor=#f8cecc;strokeColor=#b85450;fontFamily=Helvetica;" vertex="1" parent="1">
          <mxGeometry x="390" y="130" width="120" height="60" as="geometry" />
        </mxCell>
        <mxCell id="_wIgYrwJDzqNhFWRHHS7-2" value="栈上分配" style="rounded=0;whiteSpace=wrap;html=1;fillColor=#ffe6cc;strokeColor=#d79b00;" vertex="1" parent="1">
          <mxGeometry x="210" y="240" width="120" height="60" as="geometry" />
        </mxCell>
        <mxCell id="_wIgYrwJDzqNhFWRHHS7-3" value="分离变量&lt;br&gt;标量替换" style="rounded=0;whiteSpace=wrap;html=1;fillColor=#fff2cc;strokeColor=#d6b656;" vertex="1" parent="1">
          <mxGeometry x="390" y="240" width="120" height="60" as="geometry" />
        </mxCell>
        <mxCell id="_wIgYrwJDzqNhFWRHHS7-4" value="消除同步锁" style="rounded=0;whiteSpace=wrap;html=1;fillColor=#e1d5e7;strokeColor=#9673a6;" vertex="1" parent="1">
          <mxGeometry x="570" y="240" width="120" height="60" as="geometry" />
        </mxCell>
      </root>
    </mxGraphModel>
  </diagram>
</mxfile>
